<svg width="221" height="302" viewBox="0 0 221 302" fill="none" xmlns="http://www.w3.org/2000/svg">
<g opacity="0.6">
<path d="M-67.401 202.197C-72.808 225.21 -44.8724 206.706 -27.7735 193.321C-27.5186 193.121 -27.4456 193.055 -27.1699 192.885C-18.4513 187.502 239.341 28.0923 167.566 42.1427C157.116 44.1883 144.179 49.03 132.006 54.3296C128.704 55.767 79.0137 79.4845 75.6782 80.8404C64.9263 85.2113 53.1213 90.7573 41.0366 97.2387C46.0995 93.4214 51.4575 89.6961 57.3287 86.0719C72.2605 76.8549 87.644 65.3614 95.5575 60.8913C110.278 52.5762 116.938 47.9715 118.806 46.6244C119.193 46.345 119.642 46.0626 120.063 45.8364C185.18 10.8269 47.6755 29.5655 -7.53876 64.2415C-41.6671 85.675 -39.3124 112.641 -47.379 127.743C-47.6198 128.194 -47.8237 128.63 -47.9901 129.112C-50.5606 136.547 -72.5975 200.564 -66.2878 191.817C-62.5984 186.703 -66.2258 187.829 -58.0916 180.108C-62.4611 187.412 -65.6644 194.806 -67.401 202.197Z" fill="#FFDBDF"/>
<path d="M66.9264 139.777C60.3966 143.206 50.3266 149.491 54.0479 153.026C62.2025 160.772 91.0791 142.343 109.455 126.884C110.255 126.211 129.223 111.425 130.031 110.761C134.076 107.439 138.237 103.781 141.481 100.378C164.621 76.0951 73.817 135.32 67.6259 139.368C67.392 139.521 67.1738 139.647 66.9264 139.777Z" fill="#FFDBDF"/>
</g>
</svg>
