<svg width="177" height="296" viewBox="0 0 177 296" fill="none" xmlns="http://www.w3.org/2000/svg">
<g opacity="0.6">
<path d="M183.084 280.289C173.995 302.111 162.181 270.755 156.155 249.893C156.065 249.582 156.044 249.486 155.92 249.187C152.003 239.718 36.3338 -40.4407 86.2972 12.9707C93.5713 20.7467 101.225 32.2462 107.992 43.6693C109.827 46.7675 136.226 95.0865 138.136 98.1386C144.294 107.977 150.618 119.384 156.62 131.714C154.751 125.655 152.588 119.498 149.95 113.122C143.24 96.9084 137.498 78.5842 133.699 70.3273C126.633 54.9683 123.929 47.3359 123.204 45.1505C123.054 44.6973 122.855 44.2054 122.646 43.7757C90.3511 -22.7294 190.857 72.9634 215.319 133.401C230.439 170.757 212.743 191.24 210.441 208.206C210.373 208.713 210.282 209.186 210.135 209.674C207.866 217.207 188.254 282.007 188.259 271.222C188.262 264.916 190.544 267.953 188.469 256.931C187.735 265.411 186.004 273.281 183.084 280.289Z" fill="#FFDBDF"/>
<path d="M110.727 151.043C114.014 157.646 118.498 168.636 113.412 169.323C102.266 170.829 89.644 138.983 83.7969 115.692C83.5422 114.678 76.8216 91.5862 76.555 90.575C75.2202 85.5138 73.9883 80.1118 73.3514 75.4536C68.807 42.2199 107.75 143.395 110.399 150.302C110.5 150.563 110.603 150.793 110.727 151.043Z" fill="#FFDBDF"/>
</g>
</svg>
