<svg width="195" height="293" viewBox="0 0 195 293" fill="none" xmlns="http://www.w3.org/2000/svg">
<g opacity="0.6">
<path d="M206.479 264.978C201.945 288.178 184.089 259.824 174.007 240.592C173.856 240.305 173.817 240.215 173.636 239.947C167.901 231.455 -1.54086 -19.8573 58.1085 22.4638C66.7927 28.6252 76.5949 38.3585 85.5122 48.1948C87.9308 50.8626 123.473 92.9145 125.956 95.5221C133.96 103.927 142.44 113.837 150.791 124.714C147.746 119.153 144.393 113.554 140.532 107.836C130.711 93.2944 121.414 76.492 116.038 69.1633C106.039 55.5309 101.861 48.5947 100.713 46.5988C100.475 46.185 100.182 45.7429 99.891 45.3637C54.9294 -13.3248 172.566 60.297 208.638 114.61C230.935 148.181 217.7 171.793 218.843 188.876C218.877 189.386 218.884 189.868 218.837 190.375C218.123 198.21 211.888 265.625 209.733 255.058C208.472 248.88 211.316 251.397 207.076 241.015C208.056 249.469 207.935 257.527 206.479 264.978Z" fill="#F9ECEE"/>
<path d="M109.7 152.845C114.242 158.655 120.837 168.525 115.991 170.217C105.373 173.925 86.6282 145.252 76.2344 123.605C75.7817 122.662 64.5719 101.384 64.1081 100.447C61.7867 95.7555 59.4977 90.7098 57.9406 86.2736C46.8315 54.6237 105.251 145.948 109.23 152.184C109.381 152.42 109.528 152.624 109.7 152.845Z" fill="#F9ECEE"/>
</g>
</svg>
