<svg width="211" height="341" viewBox="0 0 211 341" fill="none" xmlns="http://www.w3.org/2000/svg">
<g opacity="0.6">
<path d="M-95.3981 282.928C-123.179 286.99 -98.3846 255.771 -80.8263 236.925C-80.6057 236.688 -80.5586 236.654 -80.3655 236.394C-74.2233 228.12 141.558 -62.1958 117.608 21.4395C114.13 33.5829 107.095 48.3834 99.5971 62.234C97.5634 65.9906 64.4912 122.317 62.5503 126.122C56.2938 138.387 48.5414 151.778 39.6551 165.404C44.6805 159.807 49.627 153.852 54.506 147.28C66.9144 130.566 82.0592 113.549 88.1452 104.649C99.6525 87.8207 105.784 80.4466 107.45 78.5193C107.762 78.1581 108.085 77.7314 108.346 77.3313C156.447 3.62148 120.341 164.386 73.7303 226.164C44.8683 264.418 13.154 258.785 -5.49709 266.87C-5.96612 267.073 -6.39096 267.232 -6.88498 267.356C-15.1215 269.437 -94.0623 289.277 -83.0165 282.665C-76.5977 278.823 -78.2961 282.996 -68.3458 274.165C-77.4218 278.589 -86.4861 281.625 -95.3981 282.928Z" fill="#F9ECEE"/>
<path d="M-7.95549 130.423C-12.662 137.792 -21.1506 149.139 -24.9628 144.367C-33.2915 133.944 -8.58102 101.682 11.554 81.5301C12.4308 80.6525 31.8313 59.7332 32.6976 58.8453C37.0341 54.401 41.7799 49.8535 46.1317 46.365C77.2471 21.4219 -2.37737 123.241 -7.47773 129.748C-7.65017 129.968 -7.80505 130.188 -7.95549 130.423Z" fill="#F9ECEE"/>
</g>
</svg>
