<svg width="280" height="460" viewBox="0 0 280 460" fill="none" xmlns="http://www.w3.org/2000/svg">
<g opacity="0.6">
<path opacity="0.7" d="M20.1009 490.65C-12.5174 487.209 18.4425 434.632 40.0173 404.148C40.1866 403.909 40.1841 403.949 40.3243 403.691C44.8422 395.386 316.943 -104.395 283.766 54.4859C279.173 76.482 270.625 102.021 261.492 125.851C259.319 131.52 215.416 235.996 213.336 241.701C205.309 263.717 195.475 287.369 184.309 311.021C190.494 301.88 196.61 291.986 202.685 280.826C218.136 252.444 236.786 224.595 244.407 209.264C259.445 179.013 267.045 166.993 268.69 164.49C268.917 164.144 269.151 163.725 269.328 163.35C330.262 34.2779 314.759 397.226 256.707 501.958C221.823 564.893 186.354 543.502 164.028 549.998C162.219 550.524 160.351 550.666 158.527 550.055C138.925 543.485 21.7002 503.668 34.5096 495.287C42.2069 490.25 39.9763 497.921 52.0852 484.34C41.2634 489.436 30.5404 491.752 20.1009 490.65Z" fill="#F9ECEE"/>
<path opacity="0.7" d="M131.185 220.778C125.274 233.609 114.644 253.041 110.491 241.829C101.45 217.425 132.156 162.957 156.8 130.895C158.243 129.017 180.894 96.6915 182.309 94.7873C187.748 87.47 193.728 80.0528 199.154 74.7132C237.065 37.4052 136.942 210.737 131.617 219.936C131.445 220.233 131.328 220.466 131.185 220.778Z" fill="#F9ECEE"/>
</g>
</svg>
