<svg width="796" height="494" viewBox="0 0 796 494" fill="none" xmlns="http://www.w3.org/2000/svg">
<path opacity="0.7" d="M117.604 740.736C35.6025 740.355 121.029 660.903 179.888 614.213C180.478 613.744 180.524 613.757 181.058 613.225C198.178 596.205 951.663 -152.235 845.857 79.2459C830.539 112.758 803.803 152.386 776.144 189.072C768.642 199.022 648.723 347.09 641.468 357.219C618.081 389.872 589.889 425.121 558.325 460.555C575.257 446.599 592.118 431.576 609.052 414.744C652.121 371.937 703.214 329.448 724.644 306.426C766 261.998 786.915 243.54 792.035 239.182C792.882 238.462 793.763 237.599 794.504 236.77C966.243 44.5742 876.414 565.956 714.977 723.946C616.105 820.706 527.892 792.27 470.52 806.403C467.903 807.048 465.231 807.275 462.58 806.913C423.932 801.641 119.102 759.461 153.432 745.368C173.619 737.081 166.903 748.379 199.449 727.239C171.344 736.047 143.877 740.858 117.604 740.736Z" fill="#F9ECEE"/>
<path opacity="0.7" d="M436.395 338.733C419.639 357.936 390.053 387.205 381.106 371.734C361.621 338.041 446.944 255.744 513.796 206.386C516.707 204.237 581.774 152.344 584.66 150.161C599.103 139.229 614.772 128.179 628.843 120.012C730.03 61.28 452.299 323.608 437.629 337.439C437.156 337.885 436.823 338.243 436.395 338.733Z" fill="#F9ECEE"/>
</svg>
